<svg width="70" height="43" viewBox="0 0 70 43" fill="none" xmlns="http://www.w3.org/2000/svg">
<path d="M69.6219 18.7255L67.7649 17.9236C67.0896 17.6281 66.0767 17.2483 64.9371 16.995C62.3204 16.4464 60.0836 16.6996 58.3531 17.7547C56.9604 18.5988 55.9052 19.865 55.2722 21.5532L53.1619 21.1311L52.9087 22.3129C51.4737 21.2578 49.6589 20.5825 47.5064 20.3714C44.6365 20.1182 42.062 20.7935 40.1205 22.3973C39.9095 22.5661 39.6563 22.7771 39.4875 22.9882C38.3057 20.8357 36.1955 19.654 33.3677 19.7384C32.7346 19.7384 32.1438 19.8228 31.5951 19.9916L31.4263 13.9141L20.7906 14.2095L20.875 18.219C18.3849 16.0243 14.8397 15.0958 10.788 15.8133C3.40207 17.0795 -0.691821 23.0304 0.616538 30.6273C1.24962 34.3835 2.93782 37.3801 5.47013 39.1949C7.36936 40.5877 9.73284 41.263 12.3496 41.263C14.9663 41.263 14.1644 41.1786 15.0929 41.0098C17.6252 40.5877 19.7355 39.617 21.3815 38.2664V39.2793L40.838 38.7729V38.2242C42.273 39.1105 44.0456 39.7014 46.0715 39.8702C46.4513 39.8702 46.8311 39.9124 47.1688 39.9124C48.7304 39.9124 50.2498 39.5748 51.6003 38.9839L51.3893 39.9968L61.8139 42.1071L63.8398 32.0623L66.7942 32.6531L68.4824 24.2121L69.5797 18.7255H69.6219ZM21.086 27.4619L18.9758 27.3353L21.0438 26.5334V27.4197L21.086 27.4619ZM13.5313 31.4292C12.9404 31.5136 12.645 31.3448 12.434 31.1338C12.1385 30.8805 11.6321 30.2052 11.3788 28.6859C11.2522 27.9262 10.9568 25.5205 12.2651 25.2672C12.3496 25.2672 12.434 25.2672 12.5184 25.2672C12.8138 25.2672 13.1515 25.4361 13.4047 26.5334L14.0378 28.8969V29.9098C14.1222 31.3448 13.7423 31.387 13.4891 31.4292H13.5313Z" fill="#EE342F"/>
<path d="M3.10511 30.1208C2.04998 23.9166 5.25757 19.2741 11.2085 18.2189C16.2309 17.3748 20.1982 19.4429 21.4643 23.7056L15.8933 25.8159C15.2602 23.4946 13.8252 22.4395 11.8838 22.7349C9.4359 23.157 8.29636 25.5204 8.92944 29.0657C9.52031 32.5265 11.4617 34.2991 13.9941 33.8771C15.8089 33.5816 16.7796 32.1044 16.653 29.741L22.6883 30.0364C22.4351 34.5523 19.5229 37.5911 14.6271 38.4352C8.42297 39.4903 4.16024 36.4094 3.10511 30.0786V30.1208Z" fill="#FDEFD2"/>
<path d="M23.8268 36.6201L23.3203 16.6149L28.8914 16.4883L29.1024 25.0559C29.9465 23.1989 31.3393 22.3126 33.3229 22.2282C36.3195 22.1438 37.8811 24.0008 37.9655 27.6726L38.1765 36.2403L32.6054 36.3669L32.3944 28.3479C32.3944 26.9974 31.8457 26.3643 30.8328 26.3643C29.7355 26.3643 29.1446 27.2506 29.1868 28.8544L29.3979 36.4091L23.8268 36.5357V36.6201Z" fill="#FDEFD2"/>
<path d="M53.6234 31.9353L44.2116 31.049C44.085 32.4417 45.098 33.4125 46.6173 33.5813C47.7147 33.6657 48.6432 33.2437 49.3607 32.2729L53.1591 34.5098C51.7664 36.5356 49.1074 37.633 46.1953 37.3797C41.3417 36.9155 38.6406 33.9611 39.0626 29.5296C39.4847 25.0981 42.6501 22.4813 47.166 22.9456C51.8086 23.3677 54.1298 26.3642 53.7078 30.838L53.5812 31.9775L53.6234 31.9353ZM48.5588 28.6011C48.7276 26.9973 48.0945 26.0266 46.7861 25.9C45.4778 25.7733 44.6759 26.6174 44.4649 28.2212L48.5166 28.6011H48.5588Z" fill="#FDEFD2"/>
<path d="M62.5316 25.6049L65.4859 26.1957L64.7684 29.6566L61.814 29.0657L59.7882 39.1105L54.3438 38.0132L56.3696 27.9684L54.3859 27.5463L55.1035 24.0855L57.0871 24.5075L57.2559 23.7056C57.9734 20.076 60.3791 18.6832 64.4308 19.4851C65.2327 19.6539 66.0346 19.9072 66.7521 20.2448L65.9924 24.0011C65.5703 23.8323 65.1482 23.7056 64.7684 23.6212C63.6711 23.4102 62.9114 23.8323 62.7426 24.803L62.5738 25.6049H62.5316Z" fill="#FDEFD2"/>
<path d="M56.6224 5.2616C56.2425 3.32016 53.9634 1.80078 51.1779 1.80078C48.3924 1.80078 47.6327 2.47607 46.662 3.53119C45.649 3.6156 44.6783 3.91104 43.8342 4.50191C42.6103 5.34601 41.7662 6.65437 41.5129 8.13155C41.2597 9.60873 41.5551 11.0859 42.4414 12.3099C42.8635 12.9429 43.4544 13.4494 44.0875 13.8715L43.1167 19.1893C42.9901 19.949 45.4802 21.0041 48.73 21.595C51.9376 22.1859 54.6809 22.0592 54.8075 21.2996L55.7783 15.9817C58.1418 15.4752 60.041 13.4494 60.2098 10.9171C60.3786 8.38478 58.8593 6.14791 56.6224 5.2616Z" fill="white"/>
<path d="M57.6365 3.86954C56.4126 2.22354 54.5555 1.04181 52.4875 0.661959C50.3772 0.282113 48.267 0.746371 46.5366 1.8437C45.2282 1.92811 44.0043 2.35017 42.9069 3.10986C41.3032 4.20719 40.248 5.89539 39.9104 7.79462C39.5727 9.69385 39.9948 11.6353 41.0921 13.2391C41.5986 13.9988 42.2739 14.6319 43.0336 15.1383L42.3161 19.1056C42.1894 19.8653 42.8225 21.3425 48.6046 22.3976C50.0396 22.6508 51.4324 22.7774 52.5297 22.7774C53.627 22.7774 52.8251 22.7774 52.9518 22.7774C54.0069 22.7774 55.4419 22.5664 55.6107 21.5113L56.3281 17.544C59.3247 16.8265 61.646 14.252 61.8571 11.0022C62.0681 7.87904 60.2955 5.0935 57.6365 3.82734V3.86954ZM53.9647 21.0048C53.416 21.1736 51.6012 21.2581 48.8157 20.7938C46.0723 20.2873 44.3841 19.5698 43.9199 19.2322L44.0887 18.2615C45.0594 18.7258 46.6632 19.3166 48.9845 19.7387C50.5461 20.0341 51.8122 20.1185 52.8252 20.1185C53.8381 20.1185 53.7537 20.1185 54.0913 20.0763L53.9225 21.047L53.9647 21.0048ZM54.4712 18.3037C53.6271 18.3881 51.8544 18.5147 49.3221 18.0505C46.7898 17.5862 45.186 16.8687 44.4263 16.4889L44.5107 15.9824L44.6795 14.9273C45.4814 15.687 46.5366 16.1934 47.6761 16.3623C48.267 16.4889 48.9001 16.4889 49.5331 16.4467C50.1662 16.7421 50.7993 16.9531 51.4746 17.0798C51.8122 17.122 52.1921 17.1642 52.5297 17.1642C53.2894 17.1642 54.0069 17.0375 54.6822 16.7421L54.5134 17.7128L54.4289 18.2193L54.4712 18.3037ZM60.1689 10.9178C60 13.3235 58.3118 15.2227 56.1594 15.898C56.6236 15.4337 56.9612 14.8851 57.1722 14.2942C57.2989 13.83 57.0457 13.3657 56.5814 13.2391C56.1172 13.1125 55.6529 13.3657 55.5263 13.83C55.3575 14.463 54.851 15.0117 54.0913 15.3071C53.4582 15.5604 52.7407 15.6448 52.0232 15.5604C51.6856 15.5604 51.348 15.4338 51.0103 15.3071C50.9259 15.3071 50.7993 15.2227 50.7149 15.1805L51.0103 13.6611C51.0947 13.1969 50.7993 12.7748 50.335 12.6904C49.8708 12.606 49.4487 12.9014 49.3643 13.3657L49.1111 14.8851C49.0267 14.8851 48.9001 14.8851 48.8157 14.8851C48.478 14.8851 48.1404 14.8429 47.8449 14.7585C47.1274 14.5897 46.4522 14.252 45.9457 13.7877C45.3548 13.2391 45.0594 12.5638 45.1016 11.9729C45.1016 11.5087 44.764 11.1288 44.2997 11.0866C43.8355 11.0866 43.4556 11.4243 43.4134 11.8885C43.4134 12.5216 43.54 13.1969 43.8777 13.7877C43.3712 13.4079 42.9069 12.9859 42.5271 12.4372C41.683 11.2132 41.3453 9.73606 41.5986 8.25888C41.8518 6.7817 42.6959 5.51555 43.9199 4.62924C43.9621 4.62924 44.0465 4.54483 44.0887 4.50262C44.0043 4.84026 44.0887 5.22011 44.4263 5.43114C44.8062 5.68437 45.3548 5.59996 45.6081 5.22011V5.1357C46.0723 4.54483 46.5788 4.03837 47.1275 3.61632C47.9294 3.02545 48.8157 2.6456 49.7864 2.43457C50.5883 2.26575 51.3902 2.26575 52.2343 2.43457C53.0362 2.56119 53.8381 2.89883 54.5134 3.32088C55.3575 3.82734 56.075 4.54483 56.5814 5.34672C56.9613 5.9376 57.2567 6.61288 57.4677 7.28816C57.5521 7.66801 57.8898 7.92124 58.2696 7.92124C58.6495 7.92124 58.3962 7.92124 58.4806 7.92124C58.8183 7.83683 59.0715 7.54139 59.1137 7.20375C59.9156 8.25888 60.3377 9.56724 60.2532 11.0022L60.1689 10.9178Z" fill="#EE342F"/>
</svg>
