<svg width="2963" height="473" viewBox="0 0 2963 473" fill="none" xmlns="http://www.w3.org/2000/svg">
<path d="M66.8624 413.101C22.2874 373.241 0 314.325 0 236.504C0 158.683 22.7202 99.7669 68.2329 59.9074C113.673 20.0478 175.848 0.0800781 254.683 0.0800781C287.429 0.0800781 316.353 2.4337 341.525 7.29277C366.698 12.0759 390.789 20.1996 413.797 31.7399V158C378.022 140.158 337.414 131.199 291.973 131.199C251.943 131.199 222.37 139.171 203.328 155.115C184.215 171.059 174.694 198.163 174.694 236.504C174.694 273.555 184.07 300.355 202.896 316.907C221.649 333.534 251.365 341.809 292.046 341.809C335.106 341.809 376.002 331.256 414.807 310.225V442.331C371.747 462.755 318.084 472.928 253.818 472.928C173.684 472.928 111.437 452.961 66.8624 413.101Z" fill="#1E2830"/>
<path d="M453.615 236.424C453.615 159.21 474.532 100.522 516.366 60.2828C558.201 20.0436 621.24 0 705.558 0C790.452 0 853.924 20.1196 896.119 60.2828C938.242 100.446 959.303 159.21 959.303 236.424C959.303 394.04 874.697 472.848 705.558 472.848C537.572 472.924 453.615 394.116 453.615 236.424ZM766.073 316.902C778.479 300.275 784.682 273.474 784.682 236.5C784.682 200.133 778.479 173.484 766.073 156.553C753.667 139.622 733.471 131.195 705.558 131.195C678.293 131.195 658.53 139.698 646.413 156.553C634.295 173.484 628.237 200.133 628.237 236.5C628.237 273.55 634.295 300.351 646.413 316.902C658.53 333.53 678.221 341.805 705.558 341.805C733.471 341.805 753.595 333.454 766.073 316.902Z" fill="#1E2830"/>
<path d="M999.113 9.56628L1159.16 9.56628L1163.71 44.0353C1181.31 31.2803 1203.74 20.727 1231 12.4514C1258.27 4.17576 1286.47 0 1315.61 0C1369.56 0 1408.94 14.0457 1433.83 42.1372C1458.71 70.2287 1471.12 113.581 1471.12 172.345V463.358H1300.18V190.491C1300.18 170.067 1295.78 155.414 1286.98 146.455C1278.18 137.496 1263.46 133.093 1242.83 133.093C1230.14 133.093 1217.08 136.13 1203.74 142.204C1190.4 148.278 1179.22 156.098 1170.06 165.664V463.358H999.113L999.113 9.56628Z" fill="#1E2830"/>
<path d="M1471.62 9.56445L1649.84 9.56445L1731.71 275.674L1813.57 9.56445L1991.8 9.56445L1821.73 463.356L1641.62 463.356L1471.62 9.56445Z" fill="#1E2830"/>
<path d="M2045.62 424.333C1994.26 383.79 1970.24 313.41 1970.24 237.411C1970.24 163.386 1989.36 102.42 2032.99 60.2828C2076.63 18.1456 2143.13 0 2227.09 0C2304.34 0 2365.07 18.8289 2409.43 56.4867C2453.71 94.1445 2475.93 145.544 2475.93 210.61V290.102H2150.85C2158.93 313.714 2169.17 330.796 2194.34 341.35C2219.52 351.903 2254.64 357.142 2299.58 357.142C2326.41 357.142 2353.82 354.94 2381.66 350.46C2391.47 348.866 2407.63 346.361 2416.14 344.462V454.779C2373.65 466.926 2317.03 473 2253.2 473C2167.3 472.924 2096.97 464.876 2045.62 424.333ZM2296.33 192.465C2296.33 169.991 2271.74 121.629 2222.33 121.629C2177.75 121.629 2148.33 169.232 2148.33 192.465L2296.33 192.465Z" fill="#1E2830"/>
<path d="M2610.13 232.626L2450.08 9.56445L2635.59 9.56445L2962.98 463.356H2775.66L2702.88 361.847L2630.11 463.356L2443.66 463.356L2610.13 232.626Z" fill="#1E2830"/>
<path d="M2771.56 9.56445L2956.21 9.56445L2814.48 208.255L2720.71 80.932L2771.56 9.56445Z" fill="#1E2830"/>
</svg>
