<svg width="310" height="310" viewBox="0 0 310 310" fill="none" xmlns="http://www.w3.org/2000/svg">
<path d="M189.966 232.247C229.451 227.937 266.674 207.261 287.17 172.75C277.465 258.108 182.492 312.059 104.97 278.935C97.8268 275.891 91.6781 270.827 87.4584 264.317C70.0372 237.431 64.3105 203.222 72.5389 172.177C96.0485 212.053 143.851 236.497 189.966 232.247Z" fill="#F3B01C"/>
<path d="M71.0907 147.13C55.086 183.48 54.3928 226.038 74.0143 261.061C4.96226 210.003 5.71578 100.744 73.1704 50.1981C79.4095 45.5263 86.824 42.7534 94.6003 42.3314C126.579 40.6737 159.071 52.8203 181.857 75.4559C135.561 75.908 90.471 105.054 71.0907 147.13Z" fill="#8D2676"/>
<path d="M204.193 86.6378C180.834 54.6285 144.273 32.8369 104.216 32.1738C181.648 -2.36727 276.892 53.6339 287.26 136.43C288.225 144.116 286.959 151.952 283.492 158.885C269.025 187.759 242.2 210.154 210.854 218.442C233.821 176.577 230.988 125.429 204.193 86.6378Z" fill="#EE342F"/>
</svg>
